<svg xmlns="http://www.w3.org/2000/svg" width="40" height="40" viewBox="0 0 40 40">
  <path id="drafts_FILL0_wght400_GRAD0_opsz48" d="M100-920l18.55,11.1a2.339,2.339,0,0,1,1.15,1.225,4.2,4.2,0,0,1,.3,1.525V-883a2.878,2.878,0,0,1-.9,2.1,2.878,2.878,0,0,1-2.1.9H83a2.878,2.878,0,0,1-2.1-.9A2.878,2.878,0,0,1,80-883v-23.15a3.924,3.924,0,0,1,.325-1.525A2.5,2.5,0,0,1,81.45-908.9Zm0,23.3,16.8-9.85L100-916.65l-16.8,10.1Zm0,3.35-17-10V-883h34v-20.35ZM100-883h0Z" transform="translate(-80 920)" fill="#7a217f"/>
</svg>
