<svg xmlns="http://www.w3.org/2000/svg" width="82.252" height="77" viewBox="0 0 82.252 77">
  <g id="Group_1601" data-name="Group 1601" transform="translate(-546 -959)">
    <g id="Group_1599" data-name="Group 1599" transform="translate(546 959)">
      <g id="Group_1579" data-name="Group 1579" transform="translate(0)">
        <path id="Path_12189" data-name="Path 12189" d="M84.252,19.48H2V7.16C2,3.772,5.084,1,8.854,1H77.4c3.77,0,6.854,2.772,6.854,6.16ZM5.427,16.4h75.4V7.16A3.277,3.277,0,0,0,77.4,4.08H8.854A3.277,3.277,0,0,0,5.427,7.16Z" transform="translate(-2 -1)" fill="#7a217f"/>
      </g>
      <g id="Group_1580" data-name="Group 1580" transform="translate(0 58.52)">
        <path id="Path_12190" data-name="Path 12190" d="M77.4,57.48H8.854C5.084,57.48,2,54.708,2,51.32V39H84.252V51.32C84.252,54.708,81.168,57.48,77.4,57.48ZM5.427,42.08v9.24A3.277,3.277,0,0,0,8.854,54.4H77.4a3.277,3.277,0,0,0,3.427-3.08V42.08Z" transform="translate(-2 -39)" fill="#7a217f"/>
      </g>
      <g id="Group_1581" data-name="Group 1581" transform="translate(7.7 15.4)">
        <path id="Path_12191" data-name="Path 12191" d="M73.852,57.2H7V11H73.852ZM10.519,54.12H70.333V14.08H10.519Z" transform="translate(-7 -11)" fill="#7a217f"/>
      </g>
      <g id="Group_1589" data-name="Group 1589" transform="translate(16.179 8)">
        <g id="Group_1583" data-name="Group 1583">
          <rect id="Rectangle_357" data-name="Rectangle 357" width="3" height="3" transform="translate(-0.179)" fill="#7a217f"/>
        </g>
        <g id="Group_1584" data-name="Group 1584" transform="translate(10)">
          <rect id="Rectangle_358" data-name="Rectangle 358" width="3" height="3" transform="translate(-0.18)" fill="#7a217f"/>
        </g>
        <g id="Group_1585" data-name="Group 1585" transform="translate(19)">
          <rect id="Rectangle_359" data-name="Rectangle 359" width="3" height="3" transform="translate(-0.179)" fill="#7a217f"/>
        </g>
        <g id="Group_1586" data-name="Group 1586" transform="translate(28)">
          <rect id="Rectangle_360" data-name="Rectangle 360" width="3" height="3" transform="translate(-0.179)" fill="#7a217f"/>
        </g>
        <g id="Group_1587" data-name="Group 1587" transform="translate(37)">
          <rect id="Rectangle_361" data-name="Rectangle 361" width="3" height="3" transform="translate(-0.18)" fill="#7a217f"/>
        </g>
        <g id="Group_1588" data-name="Group 1588" transform="translate(47)">
          <rect id="Rectangle_362" data-name="Rectangle 362" width="3" height="3" transform="translate(-0.179)" fill="#7a217f"/>
        </g>
      </g>
      <g id="Group_1596" data-name="Group 1596" transform="translate(16.179 66.001)">
        <g id="Group_1590" data-name="Group 1590">
          <rect id="Rectangle_363" data-name="Rectangle 363" width="3" height="3" transform="translate(-0.179)" fill="#7a217f"/>
        </g>
        <g id="Group_1591" data-name="Group 1591" transform="translate(10)">
          <rect id="Rectangle_364" data-name="Rectangle 364" width="3" height="3" transform="translate(-0.18)" fill="#7a217f"/>
        </g>
        <g id="Group_1592" data-name="Group 1592" transform="translate(19)">
          <rect id="Rectangle_365" data-name="Rectangle 365" width="3" height="3" transform="translate(-0.179)" fill="#7a217f"/>
        </g>
        <g id="Group_1593" data-name="Group 1593" transform="translate(28)">
          <rect id="Rectangle_366" data-name="Rectangle 366" width="3" height="3" transform="translate(-0.179)" fill="#7a217f"/>
        </g>
        <g id="Group_1594" data-name="Group 1594" transform="translate(37)">
          <rect id="Rectangle_367" data-name="Rectangle 367" width="3" height="3" transform="translate(-0.18)" fill="#7a217f"/>
        </g>
        <g id="Group_1595" data-name="Group 1595" transform="translate(47)">
          <rect id="Rectangle_368" data-name="Rectangle 368" width="3" height="3" transform="translate(-0.179)" fill="#7a217f"/>
        </g>
      </g>
    </g>
  </g>
</svg>
