<svg xmlns="http://www.w3.org/2000/svg" width="89.605" height="81.396" viewBox="0 0 89.605 81.396">
  <g id="Group_1617" data-name="Group 1617" transform="translate(-1 -3.863)">
    <g id="Group_1605" data-name="Group 1605" transform="translate(8.14 75.319)">
      <path id="Path_12207" data-name="Path 12207" d="M7.5,59.24H27.521v.14a1.4,1.4,0,1,0,2.8,0v-.14H40.682a1.4,1.4,0,1,0,0-2.8H30.321V56.3a1.4,1.4,0,1,0-2.8,0v.14H7.5a1.323,1.323,0,0,0-1.4,1.4A1.4,1.4,0,0,0,7.5,59.24Z" transform="translate(-6.1 -54.9)" fill="#fff"/>
    </g>
    <g id="Group_1606" data-name="Group 1606" transform="translate(55.043 76.859)">
      <path id="Path_12208" data-name="Path 12208" d="M41,58.8h1.54a1.4,1.4,0,0,0,0-2.8H41a1.4,1.4,0,0,0,0,2.8Z" transform="translate(-39.6 -56)" fill="#fff"/>
    </g>
    <g id="Group_1607" data-name="Group 1607" transform="translate(30.402 43.887)">
      <path id="Path_12209" data-name="Path 12209" d="M33.481,38.54,24.1,32.66a1.272,1.272,0,0,0-1.4,0,1.47,1.47,0,0,0-.7,1.26v11.9a1.47,1.47,0,0,0,.7,1.26,1.262,1.262,0,0,0,.7.14,1.069,1.069,0,0,0,.7-.28l9.381-5.88a1.428,1.428,0,0,0,.7-1.12A1.545,1.545,0,0,0,33.481,38.54ZM24.8,43.161V36.44l5.46,3.36Z" transform="translate(-22 -32.45)" fill="#fff"/>
    </g>
    <g id="Group_1608" data-name="Group 1608" transform="translate(22.001 37.937)">
      <path id="Path_12210" data-name="Path 12210" d="M29.161,28.2A13.161,13.161,0,1,0,42.322,41.361,13.328,13.328,0,0,0,29.161,28.2Zm0,23.661A10.361,10.361,0,1,1,39.521,41.5,10.337,10.337,0,0,1,29.161,51.861Z" transform="translate(-16 -28.2)" fill="#fff"/>
    </g>
    <g id="Group_1609" data-name="Group 1609" transform="translate(1 3.864)">
      <path id="Path_12211" data-name="Path 12211" d="M76.6,15.815V5.315a1.686,1.686,0,0,0-.98-1.4,1.329,1.329,0,0,0-1.54.56c-.42.56-9.941,15.261-32.9,10.921a3.388,3.388,0,0,0-2.66.7,4.209,4.209,0,0,0-1.26,3.78v7H2.4a1.323,1.323,0,0,0-1.4,1.4V83.859a1.323,1.323,0,0,0,1.4,1.4H67.784a1.323,1.323,0,0,0,1.4-1.4V36.116a20.689,20.689,0,0,1,4.9,5.18,1.177,1.177,0,0,0,1.54.56,1.391,1.391,0,0,0,.98-1.4v-10.5a7.341,7.341,0,0,0,5.88-7.14A7.19,7.19,0,0,0,76.6,15.815Zm-36.4,2.66a.691.691,0,0,1,.42-.14,44.283,44.283,0,0,0,10.221.7v7.84a52.3,52.3,0,0,0-10.221.7.691.691,0,0,1-.42-.14C39.642,26.876,39.782,18.9,40.2,18.475Zm5.18,11.481,3.5-.14a11.87,11.87,0,0,0,3.78,8.261c.7.56,2.24,2.1,1.96,3.08a5.961,5.961,0,0,1-5.18.28c-.84-.98-.7-2.52-.84-2.94a32.239,32.239,0,0,0-3.22-8.541Zm21,52.643H3.8V73.919H66.384Zm0-48.3V71.119H3.8v-41.3H38.662a3.96,3.96,0,0,0,2.38.56c.42-.14.98-.14,1.4-.28a1.725,1.725,0,0,0,.28.98c1.68,2.38,2.94,7.14,3.08,7.98.14,1.96.98,4.2,2.38,4.76,8.261,2.94,12.6-3.22,6.16-7.98-1.96-1.68-2.52-4.48-2.66-6.02h.56A30.081,30.081,0,0,1,66.384,34.3Zm7.42,2.52a32.967,32.967,0,0,0-20.161-9.661V18.9A33.3,33.3,0,0,0,73.8,9.235Zm2.8-9.661V18.615a4.369,4.369,0,0,1,3.08,4.2A4.417,4.417,0,0,1,76.6,27.156Z" transform="translate(-1 -3.864)" fill="#fff"/>
    </g>
    <g id="Group_1610" data-name="Group 1610" transform="translate(83.577 13.127)">
      <path id="Path_12212" data-name="Path 12212" d="M61.968,14.148l2.38-.98a1.284,1.284,0,0,0,.7-1.82,1.284,1.284,0,0,0-1.82-.7l-2.38.98a1.284,1.284,0,0,0-.7,1.82A1.389,1.389,0,0,0,61.968,14.148Z" transform="translate(-59.98 -10.48)" fill="#fff"/>
    </g>
    <g id="Group_1611" data-name="Group 1611" transform="translate(85.145 21.556)">
      <path id="Path_12213" data-name="Path 12213" d="M65.16,16.5H62.5a1.4,1.4,0,0,0,0,2.8h2.66a1.323,1.323,0,0,0,1.4-1.4A1.4,1.4,0,0,0,65.16,16.5Z" transform="translate(-61.1 -16.5)" fill="#fff"/>
    </g>
    <g id="Group_1612" data-name="Group 1612" transform="translate(83.778 29.009)">
      <path id="Path_12214" data-name="Path 12214" d="M64.431,22.911l-2.38-.98a1.379,1.379,0,1,0-1.12,2.52l2.38.98a1.379,1.379,0,1,0,1.12-2.52Z" transform="translate(-60.123 -21.823)" fill="#fff"/>
    </g>
    <g id="Group_1613" data-name="Group 1613" transform="translate(43.143 21.556)">
      <path id="Path_12215" data-name="Path 12215" d="M32.5,19.3h.7a1.4,1.4,0,0,0,0-2.8h-.7a1.4,1.4,0,1,0,0,2.8Z" transform="translate(-31.1 -16.5)" fill="#fff"/>
    </g>
  </g>
</svg>
