<svg xmlns="http://www.w3.org/2000/svg" width="88.87" height="88.87" viewBox="0 0 88.87 88.87">
  <g id="Group_1603" data-name="Group 1603" transform="translate(-984 -1865)">
    <path id="Path_12199" data-name="Path 12199" d="M87.273,9.129H64.135A7.676,7.676,0,0,0,56.628,3H38.241a7.676,7.676,0,0,0-7.506,6.129H22.919v-4.6A1.533,1.533,0,0,0,21.387,3H15.258a1.533,1.533,0,0,0-1.532,1.532v4.6H7.6a4.6,4.6,0,0,0-4.6,4.6V59.693a4.6,4.6,0,0,0,4.6,4.6H41.306v6.129a6.124,6.124,0,0,0-5.911,4.6H28.766a4.59,4.59,0,0,0-4.315-3.064H18.322a4.6,4.6,0,1,0,0,9.193h6.129a4.59,4.59,0,0,0,4.315-3.064h6.628a6.124,6.124,0,0,0,5.911,4.6v7.661a1.532,1.532,0,0,0,3.064,0V82.676H50.5v7.661a1.532,1.532,0,0,0,3.064,0V82.676a6.129,6.129,0,1,0,0-12.258V64.289H87.273a4.6,4.6,0,0,0,4.6-4.6V13.726A4.6,4.6,0,0,0,87.273,9.129ZM38.241,6.064H56.628a4.606,4.606,0,0,1,4.335,3.064H33.907A4.606,4.606,0,0,1,38.241,6.064Zm-21.451,0h3.064V9.129H16.79ZM6.064,21.387h7.661a1.535,1.535,0,0,1,1.532,1.532V50.5a1.535,1.535,0,0,1-1.532,1.532H6.064ZM24.451,78.08H18.322a1.532,1.532,0,1,1,0-3.064h6.129a1.532,1.532,0,0,1,0,3.064Zm32.177-1.532a3.068,3.068,0,0,1-3.064,3.064H41.306a3.064,3.064,0,0,1,0-6.129H53.564A3.068,3.068,0,0,1,56.628,76.547ZM50.5,70.418H44.37V64.289H50.5ZM88.805,59.693a1.535,1.535,0,0,1-1.532,1.532H7.6a1.535,1.535,0,0,1-1.532-1.532V55.1h7.661a4.6,4.6,0,0,0,4.6-4.6V22.919a4.6,4.6,0,0,0-4.6-4.6H6.064v-4.6A1.535,1.535,0,0,1,7.6,12.193H87.273a1.535,1.535,0,0,1,1.532,1.532Z" transform="translate(981 1862)" fill="#7a217f"/>
    <path id="Path_12202" data-name="Path 12202" d="M54.6,12a4.6,4.6,0,1,0,4.6,4.6A4.6,4.6,0,0,0,54.6,12Zm0,6.129A1.532,1.532,0,1,1,56.129,16.6,1.535,1.535,0,0,1,54.6,18.129Z" transform="translate(1006.015 1866.79)" fill="#7a217f"/>
    <path id="Path_12203" data-name="Path 12203" d="M57.661,36H51.532a1.532,1.532,0,1,0,0,3.064h6.129a1.532,1.532,0,1,0,0-3.064Z" transform="translate(1006.015 1879.563)" fill="#7a217f"/>
    <path id="Path_12204" data-name="Path 12204" d="M39.451,11A21.451,21.451,0,1,0,60.9,32.451,21.475,21.475,0,0,0,39.451,11Zm0,39.838A18.387,18.387,0,1,1,57.838,32.451,18.407,18.407,0,0,1,39.451,50.838Z" transform="translate(988.983 1866.257)" fill="#272727"/>
    <path id="Path_12205" data-name="Path 12205" d="M36.79,16A13.79,13.79,0,1,0,50.58,29.79,13.807,13.807,0,0,0,36.79,16Zm0,24.516A10.726,10.726,0,1,1,47.516,29.79,10.737,10.737,0,0,1,36.79,40.516Z" transform="translate(991.645 1868.918)" fill="#272727"/>
  </g>
</svg>
