<svg xmlns="http://www.w3.org/2000/svg" width="88.307" height="78" viewBox="0 0 88.307 78">
  <g id="Group_1600" data-name="Group 1600" transform="translate(-109.7 -966.5)">
    <path id="Path_12197" data-name="Path 12197" d="M84.236,96.383a2.2,2.2,0,0,1-3.075.5L60.056,81.636V96a2.2,2.2,0,0,1-4.4,0V81.636L34.546,96.879a2.2,2.2,0,1,1-2.579-3.571L52.54,78.45H63.167L83.741,93.308A2.2,2.2,0,0,1,84.236,96.383Zm17.271-21.5a2.2,2.2,0,0,1-2.2,2.2H16.4a2.2,2.2,0,1,1,0-4.4H19.7V25.611H16.4a2.2,2.2,0,1,1,0-4.4h82.9a2.2,2.2,0,1,1,0,4.4H96.012V72.679h3.293A2.2,2.2,0,0,1,101.507,74.882Zm-9.9-49.271H24.1V72.679H91.607ZM49.963,49.367c0-3.69,2-7.633,7.621-7.633s7.621,3.943,7.621,7.633c0,2.152-1.029,4.1-2.023,5.979-.292.551-1.364,2.926-1.606,3.617a1.453,1.453,0,0,1,.476,1.07v4.952a1.468,1.468,0,0,1-1.469,1.469h-6a1.469,1.469,0,0,1-1.469-1.469V60.033a1.453,1.453,0,0,1,.477-1.07c-.242-.691-1.315-3.066-1.607-3.619C50.992,53.464,49.963,51.519,49.963,49.367Zm2.937,0c.192,2.732,3.588,8.449,3.588,9.2h2.18c0-.691,3.6-6.465,3.6-9.2,0-2.143-.813-4.7-4.684-4.7S52.75,47.23,52.9,49.367ZM56.053,61.5v2.015h3.063V61.5Zm4.559-24.6a1.469,1.469,0,0,0,1.806-1.027l1-3.636a1.468,1.468,0,1,0-2.832-.778l-1,3.636A1.468,1.468,0,0,0,60.612,36.906ZM39.78,45.692l3.636,1a1.468,1.468,0,0,0,.778-2.832l-3.636-1a1.468,1.468,0,1,0-.778,2.832ZM69.37,52.3A1.468,1.468,0,0,0,70.4,54.1l3.635,1a1.469,1.469,0,0,0,.779-2.832l-3.635-1A1.468,1.468,0,0,0,69.37,52.3ZM49.1,37.547a1.468,1.468,0,1,0,2.552-1.452l-1.864-3.277a1.468,1.468,0,1,0-2.552,1.452ZM44.409,54.623l-3.277,1.865a1.468,1.468,0,1,0,1.452,2.552l3.277-1.865a1.468,1.468,0,0,0-1.452-2.552ZM69.456,43.531a1.466,1.466,0,0,0,.725-.192l3.278-1.865a1.469,1.469,0,0,0-1.453-2.552l-3.278,1.865a1.469,1.469,0,0,0,.728,2.745Z" transform="translate(96 945.793)" fill="#7a217f" stroke="#fff" stroke-width="1"/>
    <path id="Path_12198" data-name="Path 12198" d="M49.963,49.367c0-3.69,2-7.633,7.621-7.633s7.621,3.943,7.621,7.633c0,2.152-1.029,4.1-2.023,5.979-.292.551-1.364,2.926-1.606,3.617a1.453,1.453,0,0,1,.476,1.07v4.952a1.468,1.468,0,0,1-1.469,1.469h-6a1.469,1.469,0,0,1-1.469-1.469V60.033a1.453,1.453,0,0,1,.477-1.07c-.242-.691-1.315-3.066-1.607-3.619C50.992,53.464,49.963,51.519,49.963,49.367Zm2.937,0c.192,2.732,3.588,8.449,3.588,9.2h2.18c0-.691,3.6-6.465,3.6-9.2,0-2.143-.813-4.7-4.684-4.7S52.75,47.23,52.9,49.367ZM56.053,61.5v2.015h3.063V61.5Zm4.559-24.6a1.469,1.469,0,0,0,1.806-1.027l1-3.636a1.468,1.468,0,1,0-2.832-.778l-1,3.636A1.468,1.468,0,0,0,60.612,36.906ZM39.78,45.692l3.636,1a1.468,1.468,0,0,0,.778-2.832l-3.636-1a1.468,1.468,0,1,0-.778,2.832ZM69.37,52.3A1.468,1.468,0,0,0,70.4,54.1l3.635,1a1.469,1.469,0,0,0,.779-2.832l-3.635-1A1.468,1.468,0,0,0,69.37,52.3ZM49.1,37.547a1.468,1.468,0,1,0,2.552-1.452l-1.864-3.277a1.468,1.468,0,1,0-2.552,1.452ZM44.409,54.623l-3.277,1.865a1.468,1.468,0,1,0,1.452,2.552l3.277-1.865a1.468,1.468,0,0,0-1.452-2.552ZM69.456,43.531a1.466,1.466,0,0,0,.725-.192l3.278-1.865a1.469,1.469,0,0,0-1.453-2.552l-3.278,1.865a1.469,1.469,0,0,0,.728,2.745Z" transform="translate(96.559 945.793)" fill="#272727" stroke="#fff" stroke-width="0.7"/>
  </g>
</svg>
