<svg xmlns="http://www.w3.org/2000/svg" width="79.103" height="79.1" viewBox="0 0 79.103 79.1">
  <g id="Group_1616" data-name="Group 1616" transform="translate(-0.794 -0.795)">
    <path id="Path_12206" data-name="Path 12206" d="M37.279.794a2.691,2.691,0,0,0-1.923.834,3.188,3.188,0,0,0-.8,1.684l-.8,4.891L29.8,5.37c.03.028.061.053.091.083l-.17-.139.08.056a2.758,2.758,0,0,0-3.777.082L21.683,9.792a2.709,2.709,0,0,0-.775,1.955,3.176,3.176,0,0,0,.626,1.75l2.9,4.028-4.811.791c.043,0,.087-.006.131-.006l-.221.021.091-.016a2.763,2.763,0,0,0-2.608,2.733v6.14a2.7,2.7,0,0,0,.844,1.923,3.159,3.159,0,0,0,1.673.8l4.9.8L21.55,34.719c.044-.051.085-.1.133-.149l-.149.17.016-.021a2.767,2.767,0,0,0,.133,3.727l4.339,4.339a2.7,2.7,0,0,0,1.955.765,3.127,3.127,0,0,0,1.742-.623l4.036-2.89.794,4.824c0-.051-.008-.1-.008-.152l.019.221-.011-.069a2.762,2.762,0,0,0,2.73,2.587h6.132a2.693,2.693,0,0,0,1.923-.836,3.194,3.194,0,0,0,.8-1.681l.8-4.893,3.956,2.84c-.033-.03-.067-.059-.1-.091l.17.141-.072-.051a2.766,2.766,0,0,0,3.777-.091l4.339-4.339a2.691,2.691,0,0,0,.765-1.953,3.183,3.183,0,0,0-.623-1.753l-2.89-4.028,4.813-.791c-.047,0-.094.008-.141.008l.221-.021-.08.013a2.761,2.761,0,0,0,2.6-2.73V21.049a2.694,2.694,0,0,0-.836-1.923,3.174,3.174,0,0,0-1.681-.794l-4.893-.807L59.1,13.578c-.028.031-.055.063-.085.093l.141-.173-.056.08a2.768,2.768,0,0,0-.085-3.785L54.676,5.456a2.7,2.7,0,0,0-1.953-.767,3.165,3.165,0,0,0-1.753.626L46.943,8.2l-.8-4.893.011.224A2.762,2.762,0,0,0,43.411.794Zm.061,2.717h6.071c.03,0,.011-.01.011.021a1.363,1.363,0,0,0,.019.221l1.169,7.059a1.364,1.364,0,0,0,2.134.884l5.818-4.169a.594.594,0,0,1,.224-.109l4.3,4.3c.021.021.021,0,0,.019a1.363,1.363,0,0,0-.141.173l-4.177,5.807a1.364,1.364,0,0,0,.9,2.144l7.059,1.159a.505.505,0,0,1,.232.091v6.081l-.011.011a1.364,1.364,0,0,0-.221.021L53.659,28.38a1.364,1.364,0,0,0-.9,2.136l4.177,5.818a.522.522,0,0,1,.1.221l-4.3,4.3c-.021.021,0,.021-.019,0a1.365,1.365,0,0,0-.162-.141l-5.818-4.166a1.364,1.364,0,0,0-2.136.884L43.441,44.49a.527.527,0,0,1-.091.232H37.279l-.011-.011a1.364,1.364,0,0,0-.019-.224l-1.159-7.056a1.364,1.364,0,0,0-2.144-.887l-5.82,4.169a.526.526,0,0,1-.221.1l-4.3-4.3V36.5a1.364,1.364,0,0,0,.141-.17l4.179-5.82a1.364,1.364,0,0,0-.887-2.134L19.973,27.22a.51.51,0,0,1-.232-.091V21.051l.011-.011a1.364,1.364,0,0,0,.221-.021L27.04,19.86a1.364,1.364,0,0,0,.887-2.144l-4.179-5.81a.536.536,0,0,1-.1-.229l4.3-4.3c.022-.021,0-.021.021,0a1.364,1.364,0,0,0,.16.149l5.82,4.169a1.364,1.364,0,0,0,2.144-.884L37.25,3.753a.575.575,0,0,1,.091-.242Zm3.01,12.735a7.873,7.873,0,1,0,7.871,7.874A7.9,7.9,0,0,0,40.351,16.247Zm0,2.728A5.145,5.145,0,1,1,35.2,24.121,5.124,5.124,0,0,1,40.351,18.974ZM13.8,53.88a13.007,13.007,0,1,0,0,26.014H66.89a13.007,13.007,0,1,0,0-26.014Zm0,2.728H66.89a10.279,10.279,0,0,1,0,20.559H13.8a10.279,10.279,0,0,1,0-20.559Zm2.112,7.405a2.828,2.828,0,1,0,.072,0h-.072Zm24.36,0a2.828,2.828,0,1,0,.072,0h-.072Zm24.36,0a2.828,2.828,0,1,0,.072,0h-.072Z" transform="translate(0 0)" fill="#fff" fill-rule="evenodd"/>
  </g>
</svg>
