<svg xmlns="http://www.w3.org/2000/svg" width="87.825" height="101.336" viewBox="0 0 87.825 101.336">
  <g id="Group_1615" data-name="Group 1615" transform="translate(-9 -3)">
    <path id="Path_12216" data-name="Path 12216" d="M24.764,75.061H18.825L16.08,70.019A1.126,1.126,0,0,0,14.1,71.1l3.065,5.63a1.124,1.124,0,0,0,.989.588H29.267a1.126,1.126,0,1,1,0,2.252H16.882A1.127,1.127,0,0,1,15.907,79s-3.718-6.609-4.583-8.145c.4-3.18,2.4-3.7,2.4-3.7a1.127,1.127,0,1,0-.437-2.211A4.966,4.966,0,0,0,10.4,66.973,8.37,8.37,0,0,0,9,72.042v8.65a1.126,1.126,0,0,0,2.252,0V75.325l2.7,4.806a3.377,3.377,0,0,0,2.925,1.687h8.969l-7.594,9.427a1.125,1.125,0,0,0-.25.707v5.63a1.126,1.126,0,0,0,1.126,1.126H20.26v4.5a1.126,1.126,0,0,0,2.252,0v-4.5h2.252v4.5a1.126,1.126,0,0,0,2.252,0v-4.5H76.558v4.5a1.126,1.126,0,0,0,2.252,0v-4.5h2.252v4.5a1.126,1.126,0,0,0,2.252,0v-4.5H84.44a1.126,1.126,0,0,0,1.126-1.126v-5.63a1.125,1.125,0,0,0-.25-.707L74.432,77.732a1.131,1.131,0,0,0-.876-.419h-4.88a1.126,1.126,0,1,0,0,2.252h4.339l9.071,11.26h-60.6l7.256-9.008h.525a3.378,3.378,0,1,0,0-6.756H27.015V71.684h6.2a3.379,3.379,0,0,0,2.923-1.689l6.2-11.273a3.378,3.378,0,0,0-5.86-3.364c0-.007-5.6,9.571-5.6,9.571H25.89a1.126,1.126,0,1,0,0,2.252h5.63a1.128,1.128,0,0,0,.973-.556l5.934-10.14a1.126,1.126,0,0,1,1.95,1.126l-6.2,11.264a1.129,1.129,0,0,1-.975.558H25.89a1.123,1.123,0,0,0-1.126,1.126Zm58.55,18.015H20.26v3.378H83.314ZM81.062,80.691V70.558h6.2a3.379,3.379,0,0,0,2.923-1.689l6.2-11.273a3.378,3.378,0,0,0-5.86-3.364c0-.007-5.6,9.571-5.6,9.571H79.936a1.126,1.126,0,1,0,0,2.252h5.63a1.128,1.128,0,0,0,.973-.556l5.934-10.14a1.126,1.126,0,0,1,1.95,1.126l-6.2,11.264a1.129,1.129,0,0,1-.975.558H79.936a1.123,1.123,0,0,0-1.126,1.126v11.26a1.126,1.126,0,0,0,2.252,0Zm-34.9-3.378H36.023a1.126,1.126,0,1,0,0,2.252H47.017a3.37,3.37,0,0,0,2.518,1.126h9.008A3.377,3.377,0,0,0,61.468,79c.016-.029.032-.059.045-.088l1.534-3.286v2.808a1.126,1.126,0,0,0,2.252,0V70.558a1.126,1.126,0,0,0-2.146-.477L59.5,77.91a1.13,1.13,0,0,1-.955.529H49.535a1.126,1.126,0,1,1,0-2.252h7.733a1.128,1.128,0,0,0,1.04-.7l2.128-5.139c1.509-3.662,3.265-4.279,3.333-4.3a1.126,1.126,0,0,0-.063-2.25s-2.914-.223-5.351,5.693c0,0-1.84,4.441-1.84,4.441H49.535A3.379,3.379,0,0,0,46.157,77.313Zm-25.9-34.9a11.26,11.26,0,1,0,11.26,11.26A11.264,11.264,0,0,0,20.26,42.409Zm51.794-1.126a11.26,11.26,0,1,0,11.26,11.26A11.264,11.264,0,0,0,72.054,41.283ZM20.26,44.661a9.008,9.008,0,1,1-9.008,9.008A9.011,9.011,0,0,1,20.26,44.661Zm2.252,10.134a3.378,3.378,0,1,0,3.378,3.378A3.379,3.379,0,0,0,22.512,54.794Zm49.542-11.26a9.008,9.008,0,1,1-9.008,9.008A9.011,9.011,0,0,1,72.054,43.535Zm-.507,10.134a3.378,3.378,0,1,0,3.378,3.378A3.379,3.379,0,0,0,71.547,53.668ZM22.512,57.046a1.126,1.126,0,1,1-1.126,1.126A1.126,1.126,0,0,1,22.512,57.046ZM71.547,55.92a1.126,1.126,0,1,1-1.126,1.126A1.126,1.126,0,0,1,71.547,55.92ZM19.134,50.29v2.252a1.126,1.126,0,0,0,2.252,0V50.29a1.126,1.126,0,0,0-2.252,0Zm4.5,0v2.252a1.126,1.126,0,0,0,2.252,0V50.29a1.126,1.126,0,0,0-2.252,0Zm48.417-1.126v2.252a1.126,1.126,0,0,0,2.252,0V49.164a1.126,1.126,0,0,0-2.252,0Zm-4.5,0v2.252a1.126,1.126,0,0,0,2.252,0V49.164a1.126,1.126,0,0,0-2.252,0ZM43.214,30a15.092,15.092,0,0,0,4.752,3.209,16.415,16.415,0,0,0,6.483,1.315h1.434L62.326,39.9a1.125,1.125,0,0,0,1.847-.865v-4.5h.716c8.339,0,15.047-6.091,15.047-13.512S73.227,7.5,64.888,7.5H54.449c-.286,0-.567.007-.849.02A15.794,15.794,0,0,0,42.369,3H31.929C23.59,3,16.882,9.091,16.882,16.512S23.59,30.023,31.929,30.023h.716v4.5a1.125,1.125,0,0,0,1.847.865l6.443-5.369h1.434C42.653,30.023,42.932,30.016,43.214,30ZM55.4,9.756a12.4,12.4,0,0,1,2.02,6.756c0,6.254-4.765,11.564-11.255,13.079a13.318,13.318,0,0,0,2.691,1.552,14.168,14.168,0,0,0,5.6,1.133h1.842a1.125,1.125,0,0,1,.721.261l4.909,4.089V33.4a1.126,1.126,0,0,1,1.126-1.126h1.842c7.028,0,12.8-5.006,12.8-11.26s-5.767-11.26-12.8-11.26ZM34.9,28.9a1.126,1.126,0,0,0-1.126-1.126H31.929c-7.028,0-12.8-5.006-12.8-11.26s5.767-11.26,12.8-11.26h10.44c7.028,0,12.8,5.006,12.8,11.26s-5.767,11.26-12.8,11.26H40.527a1.125,1.125,0,0,0-.721.261L34.9,32.122Z" transform="translate(0 0)" fill="#fff" fill-rule="evenodd"/>
  </g>
</svg>
