<svg xmlns="http://www.w3.org/2000/svg" width="40.042" height="50.052" viewBox="0 0 40.042 50.052">
  <path id="location_on_FILL0_wght400_GRAD0_opsz48" d="M180.027-855.6a4.2,4.2,0,0,0,3.091-1.288,4.232,4.232,0,0,0,1.283-3.1,4.2,4.2,0,0,0-1.288-3.092,4.232,4.232,0,0,0-3.1-1.283,4.2,4.2,0,0,0-3.091,1.288,4.232,4.232,0,0,0-1.283,3.1,4.2,4.2,0,0,0,1.288,3.091A4.232,4.232,0,0,0,180.027-855.6Zm-.006,20.709a73.274,73.274,0,0,0,12.294-13.733q3.973-6.163,3.973-10.855a16.316,16.316,0,0,0-4.711-12.068,15.732,15.732,0,0,0-11.556-4.7,15.732,15.732,0,0,0-11.556,4.7,16.316,16.316,0,0,0-4.711,12.068q0,4.692,4.067,10.855A79.567,79.567,0,0,0,180.021-834.89Zm0,4.943q-10.073-8.572-15.047-15.923T160-859.479q0-9.385,6.038-14.953A20,20,0,0,1,180.021-880,20,20,0,0,1,194-874.432q6.038,5.568,6.038,14.953,0,6.257-4.974,13.608T180.021-829.948ZM180.021-859.979Z" transform="translate(-160 880)" fill="#7a217f"/>
</svg>
