<svg xmlns="http://www.w3.org/2000/svg" width="61.629" height="48.751" viewBox="0 0 61.629 48.751">
  <path id="Path_11870" data-name="Path 11870" d="M8.112-49.853v-3.467A23.5,23.5,0,0,0,19.345-61.6a19.777,19.777,0,0,0,4.091-11.752A3.563,3.563,0,0,0,23.02-75.3a.625.625,0,0,0-.555-.416,2.369,2.369,0,0,0-1.109.555,9.261,9.261,0,0,1-5.547,1.595A9.356,9.356,0,0,1,8.771-76.79a10.834,10.834,0,0,1-3.016-7.662,11.3,11.3,0,0,1,3.467-8.216,11.533,11.533,0,0,1,8.528-3.5,13.073,13.073,0,0,1,10.019,4.75q4.264,4.75,4.264,12.792a26.664,26.664,0,0,1-5.755,16.779Q20.523-54.429,8.112-49.853Zm33.351,0v-3.467A23.5,23.5,0,0,0,52.7-61.6a19.777,19.777,0,0,0,4.091-11.752A3.563,3.563,0,0,0,56.37-75.3a.625.625,0,0,0-.555-.416,2.369,2.369,0,0,0-1.109.555,9.261,9.261,0,0,1-5.547,1.595,9.356,9.356,0,0,1-7.038-3.224,10.834,10.834,0,0,1-3.016-7.662,11.3,11.3,0,0,1,3.467-8.216,11.533,11.533,0,0,1,8.528-3.5,13.073,13.073,0,0,1,10.019,4.75q4.264,4.75,4.264,12.792a26.664,26.664,0,0,1-5.755,16.779Q53.874-54.429,41.463-49.853Z" transform="translate(-4.755 97.169)" fill="none" stroke="#7a217f" stroke-width="2"/>
</svg>
