<svg xmlns="http://www.w3.org/2000/svg" width="40.404" height="40.46" viewBox="0 0 40.404 40.46">
  <path id="phone_in_talk_FILL0_wght400_GRAD0_opsz48" d="M156.813-821.135a16.682,16.682,0,0,0-4.994-11.5,16.683,16.683,0,0,0-11.5-4.994V-841a19.72,19.72,0,0,1,7.6,1.712A20.821,20.821,0,0,1,154.175-835a20.819,20.819,0,0,1,4.293,6.257,19.719,19.719,0,0,1,1.712,7.6Zm-9.484,0a7.5,7.5,0,0,0-2.245-4.742,7.684,7.684,0,0,0-4.77-2.217v-3.367a10.872,10.872,0,0,1,7.155,3.2,10.706,10.706,0,0,1,3.227,7.127Zm10.55,20.595a31.34,31.34,0,0,1-13.272-3.143,43.891,43.891,0,0,1-12.542-8.923,43.891,43.891,0,0,1-8.923-12.542A31.34,31.34,0,0,1,120-838.419a2.447,2.447,0,0,1,.721-1.8,2.447,2.447,0,0,1,1.8-.722h7.856a1.837,1.837,0,0,1,1.347.561,3.053,3.053,0,0,1,.786,1.4l1.511,7.051a4.084,4.084,0,0,1-.024,1.451,2.191,2.191,0,0,1-.6,1.107l-5.6,5.655a46.931,46.931,0,0,0,3.086,4.6,36.506,36.506,0,0,0,3.591,4.04,40.806,40.806,0,0,0,4.377,3.9,34.779,34.779,0,0,0,4.826,3.115l5.331-5.5a2.867,2.867,0,0,1,1.3-.842,3.212,3.212,0,0,1,1.451-.112l6.678,1.459a2.681,2.681,0,0,1,1.4.9,2.308,2.308,0,0,1,.561,1.513v7.576a2.447,2.447,0,0,1-.722,1.8A2.447,2.447,0,0,1,157.879-800.54ZM126.117-826.8l4.545-4.6-1.291-6.173h-6a25.841,25.841,0,0,0,.758,4.966A39.8,39.8,0,0,0,126.117-826.8Zm20.707,20.37a28,28,0,0,0,4.994,1.74,26.333,26.333,0,0,0,5.219.786v-6l-5.78-1.178ZM126.117-826.8ZM146.824-806.432Z" transform="translate(-120 841)" fill="#7a217f"/>
</svg>
