<svg xmlns="http://www.w3.org/2000/svg" width="40.551" height="40.551" viewBox="0 0 40.551 40.551">
  <path id="schedule_FILL0_wght400_GRAD0_opsz48" d="M107.726-849.942l2.281-2.281-8.059-8.11v-10.188H98.907v11.4Zm-7.451,10.492a19.618,19.618,0,0,1-7.857-1.6,20.565,20.565,0,0,1-6.463-4.359,20.564,20.564,0,0,1-4.359-6.463,19.618,19.618,0,0,1-1.6-7.857,19.618,19.618,0,0,1,1.6-7.857,20.565,20.565,0,0,1,4.359-6.463,20.566,20.566,0,0,1,6.463-4.359,19.618,19.618,0,0,1,7.857-1.6,19.618,19.618,0,0,1,7.857,1.6,20.567,20.567,0,0,1,6.463,4.359,20.565,20.565,0,0,1,4.359,6.463,19.618,19.618,0,0,1,1.6,7.857,19.618,19.618,0,0,1-1.6,7.857,20.564,20.564,0,0,1-4.359,6.463,20.566,20.566,0,0,1-6.463,4.359A19.618,19.618,0,0,1,100.275-839.449ZM100.275-859.725Zm0,17.234a16.591,16.591,0,0,0,12.165-5.069,16.591,16.591,0,0,0,5.069-12.165,16.591,16.591,0,0,0-5.069-12.165,16.591,16.591,0,0,0-12.165-5.069A16.591,16.591,0,0,0,88.11-871.89a16.591,16.591,0,0,0-5.069,12.165A16.591,16.591,0,0,0,88.11-847.56,16.591,16.591,0,0,0,100.275-842.491Z" transform="translate(-80 880)" fill="#7a217f"/>
</svg>
